<?xml version="1.0" encoding="UTF-8"?>
<svg width="264px" height="74px" viewBox="0 0 264 74" version="1.1" xmlns="http://www.w3.org/2000/svg" xmlns:xlink="http://www.w3.org/1999/xlink">
    <!-- Generator: Sketch 55.2 (78181) - https://sketchapp.com -->
    <title>UNC_logo_RGB</title>
    <desc>Created with Sketch.</desc>
    <g id="Page-1" stroke="none" stroke-width="1" fill="none" fill-rule="evenodd">
        <g id="UNC_logo_RGB">
            <g id="Group" transform="translate(34.000000, 24.000000)" fill="#4B9CD3" fill-rule="nonzero">
                <path d="M0.7,0.7 L0.8,0.7 C0.8,0.7 0.8,0.7 0.7,0.7 C0.8,0.7 0.7,0.7 0.7,0.7 Z" id="Path"></path>
                <path d="M0.5,1.3 C0.5,1.3 0.5,1.3 0.5,1.3 L0.5,0.8 L0.5,0.8 L0.5,0.8 C0.5,0.8 0.5,0.8 0.5,0.8 L0.5,1.3 Z" id="Path"></path>
            </g>
            <g id="Group" transform="translate(0.000000, 7.000000)" fill="#4B9CD3" fill-rule="nonzero">
                <path d="M26,14.2 C26.1,14.3 26.2,14.3 26.2,14.3 C34.7,14 39.5,17.2 39.9,18.5 L43.3,18.4 L44.4,16.1 C44.5,15.9 44.4,15.6 44.4,15.6 C43.4,14.5 34.9,12 24.6,12 C13.6,12 6.7,14.2 5.2,15.2 C5.2,15.2 4.8,15.4 4.8,15.7 C4.8,15.8 5,16.3 5,16.3 L5.3,16.9 C5.4,17.1 5.5,17.1 5.7,16.9 C5.7,16.9 5.9,16.8 5.9,16.7 C5.9,16.6 5.8,16.3 5.8,16.3 C5.6,15.9 5.9,15.8 5.9,15.8 L6.5,15.5 C6.8,15.4 6.8,15.6 6.9,15.8 C6.9,15.8 7,16.1 7.1,16.2 C7.3,16.3 7.8,16 9.2,15.6 C9.3,15.6 9.4,15.6 9.6,15.5 C9.7,15.4 9.6,14.9 9.6,14.9 C9.5,14.7 9.4,14.4 10,14.3 L10.9,14.1 C11.3,14 11.4,14.2 11.4,14.5 C11.4,14.5 11.4,14.9 11.5,15 C11.6,15.2 11.8,14.9 14.7,14.6 C14.7,14.6 15.1,14.6 15.2,14.4 C15.3,14.2 15.2,13.9 15.2,13.9 C15.2,13.6 15,13.3 15.7,13.3 L16.9,13.2 C17.8,13 17.7,13.4 17.7,13.7 C17.7,13.7 17.7,14.1 17.8,14.1 C17.9,14.2 18.2,14.2 18.2,14.2 C19.8,14 20.7,14 22.4,14 C22.4,14 22.6,14 22.7,13.9 C22.8,13.8 22.8,13.7 22.8,13.7 C22.8,13.5 22.8,13.2 22.9,13.1 C23,13 23.3,13 23.5,13 L24.9,13 C25.1,13 25.6,12.9 25.7,13.1 C25.8,13.2 25.8,13.8 25.8,13.8 C25.8,13.8 26,14.1 26,14.2 Z" id="Path"></path>
                <path d="M24.6,0.5 C16.3,0.5 11.3,3.2 8,6.3 C8,6.3 7.9,6.4 7.9,6.4 C7.8,6.6 7.8,6.8 8.2,6.7 C15.3,3.7 23,5.6 25.5,8.4 C25.6,8.5 25.5,8.6 25.4,8.6 C22.9,8.6 20.8,8.5 16.2,9.1 C13.7,9.5 11.5,9.8 9.6,10.3 C6.5,11.1 4.3,12.1 3.1,12.9 C2.7,13.1 2.6,13.3 2.5,13.5 C2.4,13.9 2.4,13.9 2.3,14.2 C2.1,14.7 2.1,15 2,15.2 C1.9,15.5 2.3,15.4 2.5,15.2 C2.9,14.8 3.9,13.9 5.4,13.2 C6.9,12.5 9.4,11.7 12.2,11.2 C15.8,10.5 20.3,10.1 24.3,10.1 C29,10.1 33.2,10.6 36.7,11.3 C40.3,12 43.1,13 44.9,13.9 C45.8,14.3 46.2,14.7 46.8,15.2 C47.3,15.7 47.3,15.3 47.3,15.1 C47.3,15.1 47.2,14.5 46.5,13.1 C44.1,8.8 37.9,0.5 24.6,0.5" id="Path"></path>
                <path d="M25.1,61.7 C8.7,61.7 0.5,57.9 0.5,55.7 L0.5,55.7 L0.5,53.6 C0.5,53.6 0.5,53.5 0.6,53.5 C0.6,53.5 0.7,53.5 0.7,53.5 C7.8,58.9 24.6,59.6 31.9,57.2 C32.1,57.1 32.2,57 32.2,57 C32.2,57 32.1,56.9 32.1,56.9 C31.9,56.8 31.8,56.8 31.6,56.9 C31.5,56.9 31.4,56.9 31.3,56.9 C19.8,58.1 7.7,55.8 3.6,52.9 C3.6,52.9 3.5,52.8 3.5,52.8 L3.5,50.3 C3.5,50.2 3.5,50.2 3.6,50.2 C3.7,50.2 3.7,50.2 3.7,50.2 C4.2,50.7 6.3,51.7 10.3,52.5 C13.3,53.1 18.2,53.9 24.7,53.9 C34.5,53.9 42.7,52.1 44.9,50.9 C45.4,50.6 45.7,50.4 45.7,50.3 C45.7,50.2 45.8,50.2 45.8,50.2 C45.9,50.2 45.9,50.3 45.9,50.3 L46,51.8 C48.5,51.8 49.4,51.9 49.5,52.5 C49.5,52.5 49.5,52.6 49.5,52.7 C49.5,52.7 49.5,52.7 49.5,52.7 L49.6,55.6 C49.7,57.8 41,61.7 25.1,61.7 Z" id="Path"></path>
                <path d="M34.8,16.5 L30.3,16.5 C30.1,16.5 30,16.6 30,16.8 L30,17.3 C30,17.5 30.1,17.6 30.3,17.6 L31.7,17.6 C31.8,17.6 31.9,17.7 31.9,17.7 C32,17.8 31.7,18 31.6,18 L30.9,18.4 C30.8,18.5 30.7,18.6 30.7,18.8 L30.7,51.1 C30.8,51.7 31.7,51.7 32.7,51.7 C33.5,51.7 34.5,51.7 34.6,51.1 C34.6,51.1 34.6,20.3 34.6,17.7 C34.6,17.6 34.7,17.5 34.7,17.5 C34.7,17.5 34.9,17.5 34.9,17.5 C35.1,17.5 35.2,17.4 35.2,17.2 L35.2,16.7 C35.1,16.6 35,16.5 34.8,16.5 Z" id="Path"></path>
                <path d="M24.8,50 C23.4,50 22,50 21.9,49.9 C21.7,49.8 21.7,49 21.8,48.4 C21.8,48.4 21.8,48.3 21.9,48.3 L22.4,48.1 L22.4,42.1 C22.4,42.1 22.4,42 22.4,41.8 C22.5,41.6 22.6,41.5 22.7,41.5 C23.1,41.2 24,40.6 24.5,40.3 C24.6,40.3 24.6,40.2 24.6,40.2 C24.6,40.2 24.6,40.1 24.6,40.1 C24.6,40 24.4,40 24.3,40 C24.2,40 24.2,40 24.2,40 C24.1,40 24,40 22.8,40 C22.8,40 22.6,40 22.4,39.9 C22.3,39.9 22.2,39.8 22.2,39.8 C22.2,39.8 22.2,39.8 22.2,39.8 L21.8,38.9 L21.5,38.9 C21.5,38.9 21.4,38.9 21.4,38.9 C21.4,38.9 21.4,38.8 21.4,38.8 L21.4,38.6 C21.4,38.5 21.5,38.5 21.5,38.5 L27.8,38.5 C27.9,38.5 27.9,38.6 27.9,38.6 L27.9,38.8 C27.9,38.8 27.9,38.9 27.9,38.9 C27.9,38.9 27.8,38.9 27.8,38.9 L27.6,38.9 L27,40.1 L27,48.1 L27.5,48.3 C27.5,48.3 27.6,48.4 27.6,48.4 C27.7,49.3 27.7,49.8 27.5,49.9 C27.4,49.9 26.1,50 24.8,50 Z" id="Path"></path>
                <path d="M43.6,18.3 L39.1,18.3 C38.9,18.3 38.8,18.4 38.8,18.6 L38.8,19.1 C38.8,19.3 38.9,19.4 39.1,19.4 L40.5,19.4 C40.6,19.4 40.7,19.5 40.7,19.5 C40.8,19.6 40.5,19.8 40.4,19.8 L39.7,20.2 C39.6,20.3 39.5,20.4 39.5,20.6 L39.5,49.8 C39.6,50.4 40.5,50.4 41.5,50.4 C42.3,50.4 43.3,50.4 43.4,49.8 C43.4,49.8 43.4,22.2 43.4,19.5 C43.4,19.4 43.5,19.3 43.5,19.3 C43.5,19.3 43.7,19.3 43.7,19.3 C43.9,19.3 44,19.2 44,19 L44,18.5 C43.9,18.4 43.8,18.3 43.6,18.3 Z" id="Path"></path>
                <path d="M18.9,16.5 L14.4,16.5 C14.2,16.5 14.1,16.6 14.1,16.8 L14.1,17.3 C14.1,17.5 14.2,17.6 14.4,17.6 L15.8,17.6 C15.9,17.6 16,17.7 16,17.7 C16.1,17.8 15.8,18 15.7,18 L15,18.4 C14.9,18.5 14.8,18.6 14.8,18.8 L14.8,51.1 C14.9,51.7 15.8,51.7 16.8,51.7 C17.6,51.7 18.6,51.7 18.7,51.1 C18.7,51.1 18.7,20.3 18.7,17.7 C18.7,17.6 18.8,17.5 18.8,17.5 C18.8,17.5 19,17.5 19,17.5 C19.2,17.5 19.3,17.4 19.3,17.2 L19.3,16.7 C19.2,16.6 19.1,16.5 18.9,16.5 Z" id="Path"></path>
                <path d="M10.1,18.4 L5.6,18.4 C5.4,18.4 5.3,18.5 5.3,18.7 L5.3,19.2 C5.3,19.4 5.4,19.5 5.6,19.5 L7,19.5 C7.1,19.5 7.2,19.6 7.2,19.6 C7.3,19.7 7,19.9 6.9,19.9 L6.2,20.3 C6.1,20.4 6,20.5 6,20.7 L6,49.9 C6.1,50.5 7,50.5 8,50.5 C8.8,50.5 9.8,50.4 9.9,49.9 C9.9,49.9 9.9,22.3 9.9,19.6 C9.9,19.5 10,19.4 10,19.4 C10,19.4 10.2,19.4 10.2,19.4 C10.4,19.4 10.5,19.3 10.5,19.1 L10.5,18.6 C10.4,18.5 10.3,18.4 10.1,18.4 Z" id="Path"></path>
            </g>
            <path d="M68.5,0.8 L68.5,73.2" id="Path" stroke="#4B9CD3" stroke-width="0.8"></path>
            <g id="Group" transform="translate(89.000000, 14.000000)" fill="#4B9CD3" fill-rule="nonzero">
                <path d="M9.9,2.8 L9.3,2.8 C9.1,1.5 8.9,1.2 8,1.2 L6.5,1.2 L6.5,6.6 C6.5,7.7 6.7,7.9 7.9,7.9 L7.9,8.5 L2.8,8.5 L2.8,7.9 C4.1,7.9 4.2,7.7 4.2,6.6 L4.2,1.2 L2.7,1.2 C2.1,1.2 1.7,1.4 1.5,2.8 L0.9,2.8 L1.1,0.2 L1.7,0.2 C1.8,0.3 1.8,0.3 1.9,0.4 C2,0.4 2.1,0.4 2.3,0.4 L8.2,0.4 C8.8,0.4 8.9,0.4 9,0.2 L9.6,0.2 L9.9,2.8 Z" id="Path"></path>
                <path d="M20.2,3.9 L20.2,2.3 C20.2,1.3 20,1 19.1,1 L19.1,0.4 L23.5,0.4 L23.5,1 C22.5,1 22.4,1.3 22.4,2.1 L22.4,6.6 C22.4,7.5 22.5,7.9 23.5,7.9 L23.5,8.5 L19.1,8.5 L19.1,7.9 C19.9,7.9 20.2,7.7 20.2,6.6 L20.2,4.7 L16.3,4.7 L16.3,6.6 C16.3,7.4 16.4,7.8 17.4,7.8 L17.4,8.4 L12.9,8.4 L12.9,7.8 C13.8,7.8 14,7.6 14,6.5 L14,2.1 C14,1.1 13.7,0.8 12.9,0.8 L12.9,0.2 L17.4,0.2 L17.4,0.8 C16.5,0.9 16.3,1 16.3,2 L16.3,3.7 L20.2,3.7 L20.2,3.9 Z" id="Path"></path>
            </g>
            <g id="Group" transform="translate(115.000000, 14.000000)" fill="#4B9CD3" fill-rule="nonzero">
                <path d="M8.4,0.4 L8.5,2.3 L7.9,2.3 C7.8,1.4 7.6,1.2 6.9,1.2 L4.3,1.2 L4.3,4 L6,4 C6.9,4 7.2,3.8 7.2,3 L7.8,3 L7.8,5.7 L7.2,5.7 C7.2,5 7,4.8 6,4.8 L4.3,4.8 L4.3,6.9 C4.3,7.6 4.4,7.6 5.1,7.6 L6.6,7.6 C7.7,7.6 8,7.1 8.2,6.2 L8.8,6.2 L8.6,8.4 L0.7,8.4 L0.7,7.8 C1.9,7.8 2.1,7.5 2.1,6.6 L2.1,2.1 C2.1,1 1.7,0.9 0.8,0.9 L0.8,0.3 L8.4,0.3 L8.4,0.4 Z" id="Path"></path>
                <path d="M27.1,0.4 L27.1,1 C26,1 25.8,1.2 25.8,2.2 L25.8,5.1 C25.8,7.7 24.2,8.7 22,8.7 C19.6,8.7 18.1,7.6 18.1,5.7 L18.1,2.3 C18.1,1.4 17.9,1 17,1 L17,0.4 L21.4,0.4 L21.4,1 C20.5,1 20.2,1.3 20.2,2.1 L20.2,5.6 C20.2,6.8 20.9,7.6 22.5,7.6 C24.2,7.6 24.9,6.7 24.9,5 L24.9,2.3 C24.9,1.3 24.7,1 23.6,1 L23.6,0.4 L27.1,0.4 Z" id="Path"></path>
            </g>
            <g id="Group" transform="translate(145.000000, 14.000000)" fill="#4B9CD3" fill-rule="nonzero">
                <path d="M10.2,0.4 L10.2,1 C9.3,1 9,1.3 9,2.2 L9,8.6 L8,8.6 L2.1,2.4 L2.1,6.7 C2.1,7.6 2.2,7.9 3.3,7.9 L3.3,8.5 L0,8.5 L0,7.9 C0.9,7.9 1.2,7.7 1.2,6.6 L1.2,1.4 C1,1.2 0.7,1.1 0.1,1.1 L0.1,0.5 L3.2,0.5 L8.1,5.8 L8.1,2.3 C8.1,1.5 8,1.1 6.9,1.1 L6.9,0.5 L10.2,0.5 L10.2,0.4 Z" id="Path"></path>
                <path d="M13.3,8.5 L13.3,7.9 C14.2,7.9 14.4,7.6 14.4,6.7 L14.4,2.2 C14.4,1.3 14.2,0.9 13.3,0.9 L13.3,0.3 L17.8,0.3 L17.8,0.9 C16.8,0.9 16.6,1.2 16.6,2.2 L16.6,6.6 C16.6,7.4 16.7,7.8 17.8,7.8 L17.8,8.4 L13.3,8.4 L13.3,8.5 Z" id="Path"></path>
            </g>
            <g id="Group" transform="translate(165.000000, 14.000000)" fill="#4B9CD3" fill-rule="nonzero">
                <path d="M10,1 C9.1,1 8.8,1.2 8.2,2.5 L5.4,8.7 L4.4,8.7 L1.7,2.6 C1,1.1 0.9,1 0,1 L0,0.4 L4.9,0.4 L4.9,1 C3.9,1 3.6,1.2 3.6,1.5 C3.6,1.7 3.7,1.9 3.8,2.3 L5.5,6.1 L7,2.8 C7.4,2 7.5,1.7 7.5,1.5 C7.5,1.2 7.2,1 6.4,1 L6.4,0.4 L10,0.4 L10,1 L10,1 Z" id="Path"></path>
                <path d="M19.2,0.4 L19.3,2.3 L18.7,2.3 C18.6,1.4 18.4,1.2 17.7,1.2 L15.1,1.2 L15.1,4 L16.8,4 C17.7,4 18,3.8 18,3 L18.6,3 L18.6,5.7 L18,5.7 C18,5 17.8,4.8 16.8,4.8 L15.1,4.8 L15.1,6.9 C15.1,7.6 15.2,7.6 15.9,7.6 L17.4,7.6 C18.5,7.6 18.8,7.1 19,6.2 L19.6,6.2 L19.4,8.4 L11.5,8.4 L11.5,7.8 C12.7,7.8 12.9,7.5 12.9,6.6 L12.9,2.1 C12.9,1 12.5,0.9 11.6,0.9 L11.6,0.3 L19.2,0.3 L19.2,0.4 Z" id="Path"></path>
            </g>
            <path d="M198.7,22.6 L197.1,22.6 C195.9,22.6 195.2,22.4 194.6,21.8 C193.8,21 193,19.6 192.4,19 L191.7,19 L191.7,20.7 C191.7,21.7 192.1,21.8 193.1,21.8 L193.1,22.4 L188.2,22.4 L188.2,21.8 C189.3,21.8 189.6,21.6 189.6,20.7 L189.6,16.2 C189.6,15.2 189.4,15 188.2,15 L188.2,14.4 C189,14.3 189.5,14.3 190.6,14.3 C191.4,14.3 192.2,14.2 192.7,14.2 C194.8,14.2 196.7,14.6 196.7,16.6 C196.7,17.6 196.1,18.3 194.8,18.7 C195.6,19.4 196.1,20.5 196.9,21.3 C197.5,21.9 198,22 198.7,22 L198.7,22.6 L198.7,22.6 Z M191.7,18.4 C193.6,18.4 194.3,17.8 194.3,16.5 C194.3,15.5 193.6,14.8 192.4,14.8 L191.8,14.8 L191.8,18.4 L191.7,18.4 Z" id="Shape" fill="#4B9CD3" fill-rule="nonzero"></path>
            <g id="Group" transform="translate(200.000000, 14.000000)" fill="#4B9CD3" fill-rule="nonzero">
                <path d="M1,6.1 C1.4,7.3 2.2,8.1 3.3,8.1 C4.1,8.1 4.6,7.6 4.6,6.9 C4.6,5.2 0.5,5 0.5,2.5 C0.5,1.6 1.1,0.2 3.3,0.2 C4.3,0.2 4.9,0.5 5.3,0.5 C5.4,0.5 5.5,0.5 5.6,0.3 L6,0.3 L6.2,2.6 L5.6,2.6 C5.2,1.5 4.3,0.9 3.4,0.9 C2.7,0.9 2.3,1.2 2.3,1.7 C2.3,3.1 6.6,3.4 6.6,6.2 C6.6,7.7 5.4,8.7 3.6,8.7 C2.7,8.7 1.7,8.4 1.5,8.4 C1.3,8.4 1.2,8.5 1.2,8.6 L0.8,8.6 L0.4,6 L1,6 L1,6.1 Z" id="Path"></path>
                <path d="M9.9,8.5 L9.9,7.9 C10.8,7.9 11,7.6 11,6.7 L11,2.2 C11,1.3 10.8,0.9 9.9,0.9 L9.9,0.3 L14.4,0.3 L14.4,0.9 C13.4,0.9 13.2,1.2 13.2,2.2 L13.2,6.6 C13.2,7.4 13.3,7.8 14.4,7.8 L14.4,8.4 L9.9,8.4 L9.9,8.5 Z" id="Path"></path>
                <path d="M26,2.8 L25.4,2.8 C25.2,1.5 25,1.2 24.1,1.2 L22.6,1.2 L22.6,6.6 C22.6,7.7 22.8,7.9 24,7.9 L24,8.5 L19,8.5 L19,7.9 C20.3,7.9 20.4,7.7 20.4,6.6 L20.4,1.2 L18.9,1.2 C18.3,1.2 17.9,1.4 17.7,2.8 L17.1,2.8 L17.3,0.2 L17.9,0.2 C18,0.3 18,0.3 18.1,0.4 C18.2,0.4 18.3,0.4 18.5,0.4 L24.4,0.4 C25,0.4 25.1,0.4 25.2,0.2 L25.8,0.2 L26,2.8 Z" id="Path"></path>
            </g>
            <path d="M237.8,15 C236.9,15 236.7,15.2 236,16.3 L234.1,19.2 L234.1,20.6 C234.1,21.5 234.2,21.8 235.4,21.8 L235.4,22.4 L230.6,22.4 L230.6,21.8 C231.7,21.8 231.9,21.5 231.9,20.6 L231.9,19.3 L229.5,16.1 C228.9,15.3 228.6,15.1 227.9,15.1 L227.9,14.5 L232.6,14.5 L232.6,15.1 C232,15.1 231.7,15.2 231.7,15.4 C231.7,15.5 231.8,15.7 231.9,15.8 L233.7,18.3 L235,16.2 C235.2,15.8 235.3,15.6 235.3,15.4 C235.3,15.1 235.1,15 234.4,15 L234.4,14.4 L237.7,14.4 L237.7,15 L237.8,15 Z" id="Path" fill="#4B9CD3" fill-rule="nonzero"></path>
            <g id="Group" transform="translate(90.000000, 31.000000)" fill="#4B9CD3" fill-rule="nonzero">
                <path d="M4.2,4.5 C5.2,4.5 5.8,5.4 5.8,6.7 C5.8,9.3 3.4,10.9 1.8,10.9 C0.8,10.9 0.2,10 0.2,8.8 C0.2,6.6 2.2,4.5 4.2,4.5 Z M2.7,10.3 C3.3,10.3 4.1,8.8 4.1,7 C4.1,6 3.7,5.2 3.3,5.2 C2.7,5.2 1.9,6.7 1.9,8.5 C1.9,9.5 2.3,10.3 2.7,10.3 Z" id="Shape"></path>
                <path d="M9.4,10.2 C9.2,11.3 8.9,12.3 7.9,13.2 C7.3,13.8 6.6,14.2 5.6,14.2 C4.7,14.2 4.1,13.8 4.1,13.3 C4.1,12.9 4.5,12.6 4.9,12.6 C5.8,12.6 5.8,13.7 6.5,13.7 C7,13.7 7.4,13.1 7.5,12.1 L8.6,5.4 L7.5,5.4 L7.6,5 C8,5 8.5,4.9 8.8,4.7 C9.1,2.6 10.3,0.8 12.4,0.8 C13.3,0.8 13.8,1.1 13.8,1.6 C13.8,2 13.4,2.4 13,2.4 C12.2,2.4 11.9,1.4 11.4,1.4 C11,1.4 10.9,1.9 10.7,3.2 L10.5,4.7 L11.6,4.7 L11.5,5.4 L10.4,5.4 L9.4,10.2 Z" id="Path"></path>
            </g>
            <g id="Group" transform="translate(109.000000, 33.000000)" fill="#4B9CD3" fill-rule="nonzero">
                <path d="M10.5,0.6 L10.5,1.2 C9.6,1.2 9.3,1.5 9.3,2.4 L9.3,8.8 L8.3,8.8 L2.4,2.6 L2.4,6.9 C2.4,7.8 2.5,8.1 3.6,8.1 L3.6,8.7 L0.3,8.7 L0.3,8.1 C1.2,8.1 1.5,7.9 1.5,6.8 L1.5,1.6 C1.3,1.4 1,1.3 0.4,1.3 L0.4,0.7 L3.5,0.7 L8.4,6 L8.4,2.5 C8.4,1.7 8.3,1.3 7.2,1.3 L7.2,0.7 L10.5,0.7 L10.5,0.6 Z" id="Path"></path>
                <path d="M17.6,8.9 C13.9,8.9 12.8,6.5 12.8,4.7 C12.8,2.5 14.4,0.4 17.9,0.4 C21.5,0.4 22.6,2.8 22.6,4.6 C22.6,6.3 21.5,8.9 17.6,8.9 Z M17.5,1.1 C16.3,1.1 15.1,1.9 15.1,4.2 C15.1,6.7 16.3,8.4 18,8.4 C19.3,8.4 20.3,7.4 20.3,5.3 C20.3,2.8 19.2,1.1 17.5,1.1 Z" id="Shape"></path>
            </g>
            <g id="Group" transform="translate(134.000000, 33.000000)" fill="#4B9CD3" fill-rule="nonzero">
                <path d="M10.5,8.9 L8.9,8.9 C7.7,8.9 7,8.7 6.4,8.1 C5.6,7.3 4.8,5.9 4.2,5.3 L3.5,5.3 L3.5,7 C3.5,8 3.9,8.1 4.9,8.1 L4.9,8.7 L0,8.7 L0,8.1 C1.1,8.1 1.4,7.9 1.4,7 L1.4,2.5 C1.4,1.5 1.2,1.3 0,1.3 L0,0.7 C0.8,0.7 1.3,0.6 2.4,0.6 C3.2,0.6 4,0.5 4.5,0.5 C6.6,0.5 8.5,0.9 8.5,2.9 C8.5,3.9 7.9,4.6 6.6,5 C7.4,5.7 7.9,6.8 8.7,7.6 C9.3,8.2 9.8,8.3 10.5,8.3 L10.5,8.9 L10.5,8.9 Z M3.5,4.7 C5.4,4.7 6.1,4.1 6.1,2.8 C6.1,1.8 5.4,1.1 4.2,1.1 L3.6,1.1 L3.6,4.7 L3.5,4.7 Z" id="Shape"></path>
                <path d="M20.8,3 L20.2,3 C20,1.7 19.8,1.4 18.9,1.4 L17.4,1.4 L17.4,6.8 C17.4,7.9 17.6,8.1 18.8,8.1 L18.8,8.7 L13.8,8.7 L13.8,8.1 C15.1,8.1 15.2,7.9 15.2,6.8 L15.2,1.4 L13.7,1.4 C13.1,1.4 12.7,1.6 12.5,3 L11.9,3 L12.1,0.4 L12.7,0.4 C12.8,0.5 12.8,0.5 12.9,0.6 C13,0.6 13.1,0.6 13.3,0.6 L19.2,0.6 C19.8,0.6 19.9,0.6 20,0.4 L20.6,0.4 L20.8,3 Z" id="Path"></path>
            </g>
            <g id="Group" transform="translate(157.000000, 33.000000)" fill="#4B9CD3" fill-rule="nonzero">
                <path d="M7.9,4.2 L7.9,2.6 C7.9,1.6 7.7,1.3 6.8,1.3 L6.8,0.7 L11.2,0.7 L11.2,1.3 C10.3,1.3 10.1,1.6 10.1,2.4 L10.1,6.9 C10.1,7.8 10.2,8.2 11.2,8.2 L11.2,8.8 L6.8,8.8 L6.8,8.2 C7.6,8.2 7.9,8 7.9,6.9 L7.9,5 L4,5 L4,6.9 C4,7.7 4.1,8.1 5.1,8.1 L5.1,8.7 L0.6,8.7 L0.6,8.1 C1.5,8.1 1.7,7.9 1.7,6.8 L1.7,2.4 C1.7,1.4 1.4,1.2 0.6,1.2 L0.6,0.6 L5.1,0.6 L5.1,1.2 C4.2,1.3 4,1.4 4,2.4 L4,4.1 L7.9,4.1 L7.9,4.2 Z" id="Path"></path>
                <path d="M28.5,6.2 C28.4,6.9 28.1,7.9 27.7,8.8 L27.7,8.9 C27.6,8.9 27.5,8.8 27.3,8.8 C27.2,8.8 27,8.8 26.9,8.8 C26.5,8.8 26.2,8.8 25.8,8.9 C25.4,8.9 25,9 24.5,9 C22.8,9 21.6,8.4 20.8,7.6 C20.1,6.8 19.7,5.8 19.7,4.9 C19.7,3.6 20.2,2.5 21.1,1.7 C22,0.9 23.3,0.5 24.8,0.5 C26.2,0.5 27,0.9 27.3,0.9 C27.4,0.9 27.5,0.8 27.5,0.7 L28,0.7 L28.1,3.4 L27.5,3.4 C27.4,2.7 27,2.2 26.6,1.8 C26.2,1.4 25.6,1.2 24.9,1.2 C23.2,1.2 22,2.6 22,4.6 C22,6.7 23.2,8.2 25.1,8.2 C26.3,8.2 27.3,7.5 27.9,6.2 L28.5,6.2 L28.5,6.2 Z" id="Path"></path>
            </g>
            <g id="Group" transform="translate(187.000000, 33.000000)" fill="#4B9CD3" fill-rule="nonzero">
                <path d="M10,8.7 L5.3,8.7 L5.3,8.1 C6.2,8.1 6.5,8 6.5,7.7 C6.5,7.5 6.4,7.2 6.2,6.7 L5.9,5.9 L3,5.9 L2.8,6.6 C2.6,7.1 2.5,7.5 2.5,7.6 C2.5,8 2.9,8.1 3.6,8.1 L3.6,8.7 L0.3,8.7 L0.3,8.1 C1.3,8.1 1.4,7.9 1.8,6.5 L3.8,0.7 L3.7,0.4 L6,0.4 L8.4,6.6 C8.9,7.8 9.2,8.1 9.9,8.1 L9.9,8.7 L10,8.7 Z M4.4,2.1 L3.3,5.2 L5.6,5.2 L4.4,2.1 Z" id="Shape"></path>
                <path d="M22.9,8.9 L21.3,8.9 C20.1,8.9 19.4,8.7 18.8,8.1 C18,7.3 17.2,5.9 16.6,5.3 L16,5.3 L16,7 C16,8 16.4,8.1 17.4,8.1 L17.4,8.7 L12.5,8.7 L12.5,8.1 C13.6,8.1 13.9,7.9 13.9,7 L13.9,2.5 C13.9,1.5 13.7,1.3 12.5,1.3 L12.5,0.7 C13.3,0.7 13.8,0.6 14.9,0.6 C15.7,0.6 16.5,0.5 17,0.5 C19.1,0.5 21,0.9 21,2.9 C21,3.9 20.4,4.6 19.1,5 C19.9,5.7 20.4,6.8 21.2,7.6 C21.8,8.2 22.3,8.3 23,8.3 L23,8.9 L22.9,8.9 Z M16,4.7 C17.9,4.7 18.6,4.1 18.6,2.8 C18.6,1.8 17.9,1.1 16.7,1.1 L16,1.1 L16,4.7 Z" id="Shape"></path>
            </g>
            <g id="Group" transform="translate(211.000000, 33.000000)" fill="#4B9CD3" fill-rule="nonzero">
                <path d="M5.1,8.9 C1.4,8.9 0.3,6.5 0.3,4.7 C0.3,2.5 1.9,0.4 5.4,0.4 C9,0.4 10.1,2.8 10.1,4.6 C10.1,6.3 9,8.9 5.1,8.9 Z M5,1.1 C3.8,1.1 2.6,1.9 2.6,4.2 C2.6,6.7 3.8,8.4 5.5,8.4 C6.8,8.4 7.8,7.4 7.8,5.3 C7.8,2.8 6.6,1.1 5,1.1 Z" id="Shape"></path>
                <path d="M17.5,0.6 L17.5,1.2 C16.4,1.2 16.2,1.4 16.2,2.4 L16.2,6.9 C16.2,7.7 16.3,7.8 17.2,7.8 L18.2,7.8 C19,7.8 19.3,7.8 20.4,6.3 L21,6.3 L20,8.7 L12.8,8.7 L12.8,8.1 C13.9,8.1 14.1,7.8 14.1,6.8 L14.1,2.4 C14.1,1.5 14,1.2 12.8,1.2 L12.8,0.6 L17.5,0.6 L17.5,0.6 Z" id="Path"></path>
            </g>
            <g id="Group" transform="translate(234.000000, 33.000000)" fill="#4B9CD3" fill-rule="nonzero">
                <path d="M0.5,8.7 L0.5,8.1 C1.4,8.1 1.6,7.8 1.6,6.9 L1.6,2.4 C1.6,1.5 1.4,1.2 0.5,1.2 L0.5,0.6 L5,0.6 L5,1.2 C4,1.2 3.8,1.5 3.8,2.4 L3.8,6.8 C3.8,7.6 3.9,8 5,8 L5,8.6 L0.5,8.6 L0.5,8.7 Z" id="Path"></path>
                <path d="M18.5,0.6 L18.5,1.2 C17.6,1.2 17.3,1.5 17.3,2.4 L17.3,8.8 L16.3,8.8 L10.4,2.6 L10.4,6.9 C10.4,7.8 10.5,8.1 11.6,8.1 L11.6,8.7 L8.3,8.7 L8.3,8.1 C9.2,8.1 9.5,7.9 9.5,6.8 L9.5,1.6 C9.3,1.4 9,1.3 8.4,1.3 L8.4,0.7 L11.5,0.7 L16.4,6 L16.4,2.5 C16.4,1.7 16.3,1.3 15.2,1.3 L15.2,0.7 L18.5,0.7 L18.5,0.6 Z" id="Path"></path>
            </g>
            <path d="M263.5,41.7 L258.8,41.7 L258.8,41.1 C259.7,41.1 260,41 260,40.7 C260,40.5 259.9,40.2 259.7,39.7 L259.4,38.9 L256.5,38.9 L256.3,39.6 C256.1,40.1 256,40.5 256,40.6 C256,41 256.4,41.1 257.1,41.1 L257.1,41.7 L253.8,41.7 L253.8,41.1 C254.8,41.1 254.9,40.9 255.3,39.5 L257.3,33.7 L257.2,33.4 L259.5,33.4 L261.9,39.6 C262.4,40.8 262.7,41.1 263.4,41.1 L263.4,41.7 L263.5,41.7 Z M257.9,35.1 L256.8,38.2 L259.1,38.2 L257.9,35.1 Z" id="Shape" fill="#4B9CD3" fill-rule="nonzero"></path>
            <g id="Group" transform="translate(90.000000, 52.000000)" fill="#4B9CD3" fill-rule="nonzero">
                <path d="M4.9,7.5 C4.8,7.8 4.8,8.1 5,8.1 C5.2,8.1 5.7,7.6 6,7.2 L6,7.7 C5.2,8.5 4.4,9.1 3.9,9.1 C3.5,9.1 3.3,8.8 3.3,8.2 C3.3,7.9 3.3,7.8 3.4,7.3 L3.4,7.3 C2.5,8.3 1.6,9.1 1.2,9.1 C0.9,9.1 0.2,8.7 0.2,7.7 C0.2,6.7 0.5,5.5 1.8,4.2 C3,3 4.1,2.7 6,2.7 L4.9,7.5 Z M4.1,3.6 C3.3,3.6 2.9,3.8 2.4,4.3 C1.9,4.8 1.5,5.9 1.5,6.7 C1.5,7.3 1.7,7.7 2.1,7.7 C2.4,7.7 2.9,7.2 3.5,6.6 L4.1,3.6 Z" id="Shape"></path>
                <path d="M9.6,7.7 C9.5,8 9.7,8.2 9.9,8.2 C10.1,8.2 10.6,7.8 11,7.3 L11.3,7.6 C10.5,8.5 9.5,9.1 8.8,9.1 C8.2,9.1 7.9,8.7 8,7.8 L8.9,3.5 L8.2,3.5 L8.3,3.2 C9.3,2.9 10.1,2.1 11,0.9 L11.4,0.9 C11.1,1.5 10.9,2.1 10.7,2.9 L11.9,2.9 L11.8,3.6 L10.6,3.6 L9.6,7.7 Z" id="Path"></path>
            </g>
            <g id="Group" transform="translate(109.000000, 52.000000)" fill="#4B9CD3" fill-rule="nonzero">
                <path d="M9.2,6.4 C9.1,7.1 8.8,8.1 8.4,9 L8.4,9.1 C8.3,9.1 8.2,9 8,9 C7.9,9 7.7,9 7.6,9 C7.2,9 6.9,9 6.5,9.1 C6.1,9.1 5.7,9.2 5.2,9.2 C3.5,9.2 2.3,8.6 1.5,7.8 C0.8,7 0.4,6 0.4,5.1 C0.4,3.8 0.9,2.7 1.8,1.9 C2.7,1.1 4,0.7 5.5,0.7 C6.9,0.7 7.7,1.1 8,1.1 C8.1,1.1 8.2,1 8.2,0.9 L8.7,0.9 L8.8,3.6 L8.2,3.6 C8.1,2.9 7.7,2.4 7.3,2 C6.8,1.6 6.3,1.4 5.6,1.4 C3.9,1.4 2.7,2.8 2.7,4.8 C2.7,6.9 3.9,8.4 5.8,8.4 C7,8.4 8,7.7 8.6,6.4 L9.2,6.4 L9.2,6.4 Z" id="Path"></path>
                <path d="M19.4,4.4 L19.4,2.8 C19.4,1.8 19.2,1.5 18.3,1.5 L18.3,0.9 L22.7,0.9 L22.7,1.5 C21.8,1.5 21.6,1.8 21.6,2.6 L21.6,7.1 C21.6,8 21.7,8.4 22.7,8.4 L22.7,9 L18.3,9 L18.3,8.4 C19.1,8.4 19.4,8.2 19.4,7.1 L19.4,5.2 L15.5,5.2 L15.5,7.1 C15.5,7.9 15.6,8.3 16.6,8.3 L16.6,8.9 L12.1,8.9 L12.1,8.3 C13,8.3 13.2,8.1 13.2,7 L13.2,2.6 C13.2,1.6 12.9,1.4 12.1,1.4 L12.1,0.8 L16.6,0.8 L16.6,1.4 C15.7,1.5 15.5,1.6 15.5,2.6 L15.5,4.3 L19.4,4.3 L19.4,4.4 Z" id="Path"></path>
            </g>
            <g id="Group" transform="translate(133.000000, 52.000000)" fill="#4B9CD3" fill-rule="nonzero">
                <path d="M10.5,9 L5.8,9 L5.8,8.4 C6.7,8.4 7,8.3 7,8 C7,7.8 6.9,7.5 6.7,7 L6.4,6.2 L3.5,6.2 L3.3,6.9 C3.1,7.4 3,7.8 3,7.9 C3,8.3 3.4,8.4 4.1,8.4 L4.1,9 L0.8,9 L0.8,8.4 C1.8,8.4 1.9,8.2 2.3,6.8 L4.3,1 L4.2,0.7 L6.5,0.7 L8.9,6.9 C9.4,8.1 9.7,8.4 10.4,8.4 L10.4,9 L10.5,9 Z M4.9,2.3 L3.8,5.4 L6.1,5.4 L4.9,2.3 Z" id="Shape"></path>
                <path d="M13.9,3.1 C13.9,1.7 13.8,1.6 12.7,1.5 L12.7,0.9 C13.4,0.9 14.4,0.8 15.3,0.8 C16.2,0.8 16.9,0.7 17.1,0.7 C19.3,0.7 20.7,1.6 20.7,3.2 C20.7,4.3 19.9,5.7 17.5,5.7 C17.1,5.7 16.5,5.6 16.1,5.6 L16.1,7.3 C16.1,8.1 16.3,8.3 17.6,8.3 L17.6,8.9 L12.8,8.9 L12.8,8.3 C13.7,8.3 14,8 14,7 L14,3.1 L13.9,3.1 Z M16.1,4.9 C16.3,5 16.5,5 16.7,5 C17.8,5 18.4,4.3 18.4,3.1 C18.4,2 17.8,1.3 16.8,1.3 C16.5,1.3 16.3,1.3 16.1,1.4 L16.1,4.9 Z" id="Shape"></path>
            </g>
            <g id="Group" transform="translate(156.000000, 52.000000)" fill="#4B9CD3" fill-rule="nonzero">
                <path d="M7.9,0.9 L8,2.8 L7.4,2.8 C7.3,1.9 7.1,1.7 6.5,1.7 L3.9,1.7 L3.9,4.5 L5.6,4.5 C6.5,4.5 6.8,4.3 6.8,3.5 L7.4,3.5 L7.4,6.2 L6.8,6.2 C6.8,5.5 6.6,5.3 5.6,5.3 L3.9,5.3 L3.9,7.4 C3.9,8.1 4,8.1 4.7,8.1 L6.2,8.1 C7.3,8.1 7.6,7.6 7.8,6.7 L8.4,6.7 L8.2,8.9 L0.3,8.9 L0.3,8.3 C1.5,8.3 1.7,8 1.7,7.1 L1.7,2.6 C1.7,1.5 1.3,1.4 0.4,1.4 L0.4,0.8 L7.9,0.8 L7.9,0.9 Z" id="Path"></path>
                <path d="M16.4,0.9 L16.4,1.5 C15.3,1.5 15.1,1.7 15.1,2.7 L15.1,7.2 C15.1,8 15.2,8.1 16.1,8.1 L17.1,8.1 C17.9,8.1 18.2,8.1 19.3,6.6 L19.9,6.6 L18.9,9 L11.7,9 L11.7,8.4 C12.8,8.4 13,8.1 13,7.1 L13,2.7 C13,1.8 12.9,1.5 11.7,1.5 L11.7,0.9 L16.4,0.9 L16.4,0.9 Z" id="Path"></path>
            </g>
            <g id="Group" transform="translate(183.000000, 52.000000)" fill="#4B9CD3" fill-rule="nonzero">
                <path d="M7.8,4.4 L7.8,2.8 C7.8,1.8 7.6,1.5 6.7,1.5 L6.7,0.9 L11.1,0.9 L11.1,1.5 C10.1,1.5 10,1.8 10,2.6 L10,7.1 C10,8 10.1,8.4 11.1,8.4 L11.1,9 L6.7,9 L6.7,8.4 C7.5,8.4 7.8,8.2 7.8,7.1 L7.8,5.2 L3.9,5.2 L3.9,7.1 C3.9,7.9 4,8.3 5,8.3 L5,8.9 L0.5,8.9 L0.5,8.3 C1.4,8.3 1.6,8.1 1.6,7 L1.6,2.6 C1.6,1.6 1.3,1.4 0.5,1.4 L0.5,0.8 L5,0.8 L5,1.4 C4.1,1.5 3.9,1.6 3.9,2.6 L3.9,4.3 L7.8,4.3 L7.8,4.4 Z" id="Path"></path>
                <path d="M14.6,9 L14.6,8.4 C15.5,8.4 15.7,8.1 15.7,7.2 L15.7,2.7 C15.7,1.8 15.5,1.5 14.6,1.5 L14.6,0.9 L19.1,0.9 L19.1,1.5 C18.1,1.5 17.9,1.8 17.9,2.7 L17.9,7.1 C17.9,7.9 18,8.3 19.1,8.3 L19.1,8.9 L14.6,8.9 L14.6,9 Z" id="Path"></path>
            </g>
            <g id="Group" transform="translate(205.000000, 52.000000)" fill="#4B9CD3" fill-rule="nonzero">
                <path d="M4.9,0.9 L4.9,1.5 C3.8,1.5 3.6,1.7 3.6,2.7 L3.6,7.2 C3.6,8 3.7,8.1 4.6,8.1 L5.6,8.1 C6.4,8.1 6.7,8.1 7.8,6.6 L8.4,6.6 L7.4,9 L0.2,9 L0.2,8.4 C1.3,8.4 1.5,8.1 1.5,7.1 L1.5,2.7 C1.5,1.8 1.4,1.5 0.2,1.5 L0.2,0.9 L4.9,0.9 L4.9,0.9 Z" id="Path"></path>
                <path d="M14.6,0.9 L14.6,1.5 C13.5,1.5 13.3,1.7 13.3,2.7 L13.3,7.2 C13.3,8 13.4,8.1 14.3,8.1 L15.3,8.1 C16.1,8.1 16.4,8.1 17.5,6.6 L18.1,6.6 L17.1,9 L9.9,9 L9.9,8.4 C11,8.4 11.2,8.1 11.2,7.1 L11.2,2.7 C11.2,1.8 11.1,1.5 9.9,1.5 L9.9,0.9 L14.6,0.9 L14.6,0.9 Z" id="Path"></path>
            </g>
        </g>
    </g>
</svg>